<svg width="61px" height="61px" viewBox="172 96 61 61" version="1.1" xmlns="http://www.w3.org/2000/svg" xmlns:xlink="http://www.w3.org/1999/xlink">
    <desc>Smileys for the typing tutor.</desc>
    <defs></defs>
    <g id="smiley1" stroke="none" stroke-width="1" fill="none" fill-rule="evenodd" transform="translate(172.250000, 96.000000)">
        <g id="1f642">
            <g id="Group">
                <ellipse id="Oval" fill="#FFDD67" cx="30" cy="30" rx="30" ry="30"></ellipse>
                <ellipse id="Oval" fill="#664E27" cx="18.5" cy="24.592" rx="5" ry="5"></ellipse>
                <ellipse id="Oval" fill="#664E27" cx="41.5" cy="24.592" rx="5" ry="5"></ellipse>
                <path d="M38.9385666,42.149954 C32.8560626,46.3919568 26.1083082,46.3672067 20.0625542,42.149954 C19.3343038,41.6422036 18.6780533,42.5212042 19.1715537,43.3334548 C21.0143049,46.3687067 24.7350573,49.0709585 29.4998104,49.0709585 C34.2645636,49.0709585 37.984566,46.3679567 39.8280672,43.3334548 C40.3223175,42.5212042 39.6660671,41.6429536 38.9385666,42.149954 L38.9385666,42.149954 Z" id="smile1" fill="#664E27"></path>
            </g>
            <path d="M48.2363731,15.514388 C44.3202694,13.1855849 39.8359427,12.914476 36.0030689,14.7747991 C35.4723823,15.0437996 34.3716084,12.7369551 35.0153947,12.4131444 C39.4384819,10.2655977 44.6137193,10.5782143 49.1330595,13.2659393 C49.7908723,13.6680235 48.7777546,15.8463142 48.2363731,15.514388 L48.2363731,15.514388 Z M24.3257863,14.8815535 C20.527027,12.9548008 16.0373757,13.1467117 12.0795059,15.4070116 C11.5334344,15.7333575 10.559095,13.5354498 11.2241287,13.1437736 C15.7898155,10.5361374 20.9694045,10.3139023 25.3545266,12.5374957 C25.9925636,12.8724927 24.8494617,15.1603908 24.3257863,14.8815535 L24.3257863,14.8815535 Z" id="Shape" fill="#917524"></path>
        </g>
    </g>
</svg>
