<svg width="60px" height="61px" viewBox="431 96 60 61" version="1.1" xmlns="http://www.w3.org/2000/svg" xmlns:xlink="http://www.w3.org/1999/xlink">
    <desc>Smileys for the typing tutor.</desc>
    <defs></defs>
    <g id="smiley4" stroke="none" stroke-width="1" fill="none" fill-rule="evenodd" transform="translate(431.000000, 96.000000)">
        <g id="1f642">
            <g id="Group">
                <ellipse id="Oval" fill="#FFDD67" cx="30" cy="30" rx="30" ry="30"></ellipse>
                <ellipse id="Oval" fill="#664E27" cx="18.5" cy="24.592" rx="5" ry="5"></ellipse>
                <ellipse id="Oval" fill="#664E27" cx="41.5" cy="24.592" rx="5" ry="5"></ellipse>
                <path d="M47.9647786,39.4145006 C43.3109666,45.5217251 37.8023069,47.0587816 30.6409419,47.0587816 C23.4795768,47.0587816 17.9709171,45.5217251 13.3171051,39.4135006 C12.6697865,38.5634693 10.9633171,39.099489 11.3396651,40.3335344 C13.7837767,48.3378286 22.0935408,53 30.6409419,53 C39.1883429,53 47.498107,48.3378286 49.9422186,40.3335344 C50.3196419,39.099489 48.6120972,38.5644693 47.9647786,39.4145006 L47.9647786,39.4145006 Z" id="smile3-copy" fill="#664E27"></path>
            </g>
            <path d="M47.1859813,17.5668643 C44.364552,13.9893332 40.2752292,12.1291923 36.030253,12.4923744 C35.4384132,12.5533269 35.2374514,10.0052199 35.9545211,9.93362899 C40.8534406,9.51381414 45.5729092,11.6603061 48.8288822,15.7891002 C49.2989093,16.4002172 47.5724528,18.0707578 47.1859813,17.5668643 L47.1859813,17.5668643 Z M23.4004674,11.0315926 C19.2043678,10.2996795 14.9670022,11.7958519 11.8429202,15.1145565 C11.4161238,15.5862985 9.84175232,13.7692982 10.3632122,13.2002993 C13.9670011,9.37172683 18.8552915,7.64483709 23.6989204,8.48918442 C24.4070219,8.62299969 23.9827848,11.1451381 23.4004674,11.0315926 L23.4004674,11.0315926 Z" id="Shape" fill="#917524"></path>
        </g>
    </g>
</svg>
