<svg width="61px" height="61px" viewBox="603 95 61 61" version="1.1" xmlns="http://www.w3.org/2000/svg" xmlns:xlink="http://www.w3.org/1999/xlink">
    <desc>Smileys for the typing tutor.</desc>
    <defs></defs>
    <g id="smiley6" stroke="none" stroke-width="1" fill="none" fill-rule="evenodd" transform="translate(603.500000, 95.000000)">
        <g id="1f609">
            <g id="Group">
                <ellipse id="Oval" fill="#FFDD67" cx="30" cy="30.999" rx="30" ry="30"></ellipse>
                <ellipse id="Oval" fill="#664E27" cx="20.252" cy="30.592" rx="5" ry="5"></ellipse>
                <path d="M49.203,26.547 C45.9666098,23.8145411 41.681074,22.6660865 37.512,23.414 C36.932,23.527 36.422,21.393 37.125,21.258 C41.9362411,20.394291 46.8821231,21.7194736 50.617,24.873 C51.158,25.342 49.648,26.934 49.203,26.547 L49.203,26.547 Z M22.488,17.807 C18.32,17.059 14.033,18.207 10.797,20.94 C10.354,21.329 8.842,19.735 9.385,19.266 C13.1199433,16.1126007 18.0657649,14.7874343 22.877,15.651 C23.58,15.785 23.068,17.92 22.488,17.807 L22.488,17.807 Z" id="Shape" fill="#917524"></path>
                <path d="M48.171,33.257 C46.432,29.753 43.813,28 41.192,28 C38.571,28 35.953,29.753 34.213,33.257 C34.041,33.61 34.939,34.246 35.386,33.9 C37.073,32.597 39.087,32.078 41.192,32.078 C43.297,32.078 45.311,32.598 46.998,33.9 C47.446,34.246 48.343,33.609 48.171,33.257 L48.171,33.257 Z M42.131,41.214 C35.193,44.857 25.773,44.109 23,44.109 C22.256,44.109 21.822,44.419 22,45.04 C24,52 39,52 43.127,42.307 C43.588,41.224 42.768,40.879 42.131,41.214 L42.131,41.214 Z" id="Shape" fill="#664E27"></path>
            </g>
        </g>
    </g>
</svg>
