<svg width="61px" height="61px" viewBox="258 96 61 61" version="1.1" xmlns="http://www.w3.org/2000/svg" xmlns:xlink="http://www.w3.org/1999/xlink">
    <desc>Smileys for the typing tutor.</desc>
    <defs></defs>
    <g id="smiley2" stroke="none" stroke-width="1" fill="none" fill-rule="evenodd" transform="translate(258.500000, 96.000000)">
        <g id="1f642">
            <g id="Group">
                <ellipse id="Oval" fill="#FFDD67" cx="30" cy="30" rx="30" ry="30"></ellipse>
                <ellipse id="Oval" fill="#664E27" cx="18.5" cy="24.592" rx="5" ry="5"></ellipse>
                <ellipse id="Oval" fill="#664E27" cx="41.5" cy="24.592" rx="5" ry="5"></ellipse>
                <path d="M41.6857796,42.1999385 C34.1550801,47.8559385 25.8007394,47.8229385 18.3155399,42.1999385 C17.4138988,41.5229385 16.6014004,42.6949385 17.2123992,43.7779385 C19.4938947,47.8249385 24.1005285,51.4279385 29.9997312,51.4279385 C35.8989338,51.4279385 40.504639,47.8239385 42.7870631,43.7779385 C43.3989905,42.6949385 42.5864921,41.5239385 41.6857796,42.1999385 L41.6857796,42.1999385 Z" id="Shape" fill="#664E27"></path>
            </g>
            <path d="M48.2363731,15.514388 C44.3202694,13.1855849 39.8359427,12.914476 36.0030689,14.7747991 C35.4723823,15.0437996 34.3716084,12.7369551 35.0153947,12.4131444 C39.4384819,10.2655977 44.6137193,10.5782143 49.1330595,13.2659393 C49.7908723,13.6680235 48.7777546,15.8463142 48.2363731,15.514388 L48.2363731,15.514388 Z M24.3257863,14.8815535 C20.527027,12.9548008 16.0373757,13.1467117 12.0795059,15.4070116 C11.5334344,15.7333575 10.559095,13.5354498 11.2241287,13.1437736 C15.7898155,10.5361374 20.9694045,10.3139023 25.3545266,12.5374957 C25.9925636,12.8724927 24.8494617,15.1603908 24.3257863,14.8815535 L24.3257863,14.8815535 Z" id="Shape" fill="#917524"></path>
        </g>
    </g>
</svg>
