<svg width="61px" height="61px" viewBox="517 96 61 61" version="1.1" xmlns="http://www.w3.org/2000/svg" xmlns:xlink="http://www.w3.org/1999/xlink">
    <desc>Smileys for the typing tutor.</desc>
    <defs></defs>
    <g id="smiley5" stroke="none" stroke-width="1" fill="none" fill-rule="evenodd" transform="translate(517.250000, 96.000000)">
        <g id="1f642">
            <g id="Group">
                <ellipse id="Oval" fill="#FFDD67" cx="30" cy="30" rx="30" ry="30"></ellipse>
                <ellipse id="Oval" fill="#664E27" cx="18.5" cy="24.592" rx="5" ry="5"></ellipse>
                <ellipse id="Oval" fill="#664E27" cx="41.5" cy="24.592" rx="5" ry="5"></ellipse>
                <path d="M48.7960676,38.473715 C43.7467235,45.4534001 37.7698774,47.2100361 29.9998609,47.2100361 C22.2298444,47.2100361 16.2529983,45.4534001 11.2036542,38.4725721 C10.5013194,37.5011078 8.64981547,38.1137017 9.05814967,39.5240393 C11.7099886,48.6718041 20.7260078,54 29.9998609,54 C39.273714,54 48.2897331,48.6718041 50.9415721,39.5240393 C51.351073,38.1137017 49.4984024,37.5022507 48.7960676,38.473715 L48.7960676,38.473715 Z" id="smile3-copy" fill="#664E27"></path>
            </g>
            <path d="M47.619032,16.9272972 C44.3826418,13.7202782 40.097106,12.3723656 35.928032,13.2501731 C35.348032,13.3827984 34.838032,10.8781757 35.541032,10.7197295 C40.3522731,9.70601583 45.298155,11.2613496 49.033032,14.962565 C49.574032,15.511845 48.064032,17.3803358 47.619032,16.9272972 L47.619032,16.9272972 Z M23.2459114,10.1715975 C18.9887854,10.0307915 15.0008845,12.1021306 12.3690802,15.8233259 C12.0120911,16.3498755 10.2001638,14.7696684 10.6373595,14.1336337 C13.6732423,9.84077019 18.2736236,7.45036788 23.1876251,7.61239523 C23.9074588,7.64635955 23.8383642,10.2029951 23.2459114,10.1715975 L23.2459114,10.1715975 Z" id="Shape" fill="#917524"></path>
        </g>
    </g>
</svg>
