<svg width="60px" height="60px" viewBox="690 96 60 60" version="1.1" xmlns="http://www.w3.org/2000/svg" xmlns:xlink="http://www.w3.org/1999/xlink">
    <desc>Smileys for the typing tutor.</desc>
    <defs></defs>
    <g id="smiley7" stroke="none" stroke-width="1" fill="none" fill-rule="evenodd" transform="translate(690.000000, 96.000000)">
        <g id="1f60c">
            <g id="Group">
                <ellipse id="Oval" fill="#FFDD67" cx="30" cy="30" rx="30" ry="30"></ellipse>
                <g transform="translate(7.000000, 13.000000)" id="Shape" fill="#917524">
                    <path d="M44.203,5.727 C40.9666098,2.99454114 36.681074,1.84608647 32.512,2.594 C31.932,2.707 31.422,0.573 32.125,0.438 C36.9362411,-0.425708966 41.8821231,0.899473597 45.617,4.053 C46.158,4.521 44.648,6.113 44.203,5.727 L44.203,5.727 Z M13.488,2.443 C9.32,1.695 5.033,2.843 1.795,5.576 C1.352,5.965 -0.158,4.371 0.383,3.902 C4.11820886,0.749108898 9.06378904,-0.575992816 13.875,0.287 C14.578,0.422 14.066,2.557 13.488,2.443 L13.488,2.443 Z"></path>
                </g>
                <path d="M42.584,38.279 C34.475,43.935 25.478,43.902 17.416,38.279 C16.445,37.603 15.57,38.775 16.228,39.857 C18.685,43.904 23.646,47.507 29.999,47.507 C36.352,47.507 41.313,43.903 43.77,39.857 C44.43,38.775 43.555,37.604 42.584,38.279 L42.584,38.279 Z" id="Shape" fill="#664E27"></path>
                <g transform="translate(9.000000, 24.000000)" id="Shape" fill="#664E27">
                    <path d="M24.913,1.209 C29.127,9.162 37.609,9.16 41.824,1.209 C42.032,0.809 41.484,0.629 40.814,0.174 C36.589,3.494 29.755,3.188 25.922,0.176 C25.254,0.629 24.707,0.809 24.913,1.209 L24.913,1.209 Z M0.175,1.209 C4.391,9.162 12.873,9.16 17.087,1.209 C17.294,0.809 16.747,0.629 16.077,0.174 C11.853,3.494 5.017,3.188 1.185,0.176 C0.516,0.629 -0.031,0.809 0.175,1.209 L0.175,1.209 Z"></path>
                </g>
            </g>
        </g>
    </g>
</svg>
