<svg width="61px" height="61px" viewBox="344 96 61 61" version="1.1" xmlns="http://www.w3.org/2000/svg" xmlns:xlink="http://www.w3.org/1999/xlink">
    <desc>Smileys for the typing tutor.</desc>
    <defs></defs>
    <g id="smiley3" stroke="none" stroke-width="1" fill="none" fill-rule="evenodd" transform="translate(344.750000, 96.000000)">
        <g id="1f642">
            <g id="Group">
                <ellipse id="Oval" fill="#FFDD67" cx="30" cy="30" rx="30" ry="30"></ellipse>
                <ellipse id="Oval" fill="#664E27" cx="18.5" cy="24.592" rx="5" ry="5"></ellipse>
                <ellipse id="Oval" fill="#664E27" cx="41.5" cy="24.592" rx="5" ry="5"></ellipse>
                <path d="M44.6324979,42.2120702 C35.3639448,48.2112608 25.0816793,48.1762585 15.869126,42.2120702 C14.7594139,41.4939917 13.7594159,42.7371055 14.5114144,43.8858189 C17.3194089,48.1783798 22.989112,52 30.2496691,52 C37.5102262,52 43.1787865,48.1773191 45.9879238,43.8858189 C46.7410652,42.7371055 45.7410672,41.4950524 44.6324979,42.2120702 L44.6324979,42.2120702 Z" id="Shape" fill="#664E27"></path>
            </g>
            <path d="M35.9436099,14.341729 C35.3954515,14.5730554 34.4582764,12.1950441 35.1230824,11.9169305 C39.6852004,10.0831541 44.8260242,10.7560155 49.1468693,13.7524466 C49.7750317,14.199438 48.612432,16.301751 48.0955232,15.9328685 C44.3514081,13.3365647 39.8969166,12.7533053 35.9436099,14.341729 Z M24.40477,14.340914 C20.4525386,12.7525768 15.9966978,13.3350564 12.2508871,15.9317062 C11.7353365,16.3044035 10.5731444,14.1997789 11.2015107,13.7516315 C15.5225531,10.7559924 20.6630632,10.0831721 25.2252975,11.9161155 C25.8901035,12.1942291 24.950755,14.5730489 24.40477,14.340914 L24.40477,14.340914 Z" id="Shape" fill="#917524"></path>
        </g>
    </g>
</svg>
