<?xml version="1.0" encoding="utf-8"?>
<!-- Generator: Adobe Illustrator 18.0.0, SVG Export Plug-In . SVG Version: 6.00 Build 0)  -->
<!DOCTYPE svg PUBLIC "-//W3C//DTD SVG 1.1//EN" "http://www.w3.org/Graphics/SVG/1.1/DTD/svg11.dtd">
<svg version="1.1" id="Layer_1" xmlns="http://www.w3.org/2000/svg" xmlns:xlink="http://www.w3.org/1999/xlink" x="0px" y="0px"
	 viewBox="0 0 355 211.8" style="enable-background:new 0 0 355 211.8;" xml:space="preserve">
<style type="text/css">
	.st0{fill:#333333;}
	.st1{fill:#4D4D4D;}
	.st2{fill:#F2F2F2;}
	.st3{fill:none;stroke:#4D4D4D;stroke-width:6.2497;stroke-linecap:round;stroke-linejoin:round;stroke-miterlimit:10;}
	.st4{fill:none;stroke:#4D4D4D;stroke-width:7;stroke-linecap:round;stroke-linejoin:round;stroke-miterlimit:10;}
	.st5{fill:#CCCCCC;}
	.st6{fill:#8CC63F;}
	.st7{fill:#EFD51F;stroke:#4D4D4D;stroke-width:3.7788;stroke-miterlimit:10;}
	.st8{fill:none;stroke:#4D4D4D;stroke-width:3.7788;stroke-miterlimit:10;}
	.st9{fill:none;stroke:#F2F2F2;stroke-width:12.4747;stroke-miterlimit:10;}
	.st10{fill:#8CC63F;stroke:#FFFFFF;stroke-width:1.022;stroke-miterlimit:10;}
	.st11{fill:#E6E6E6;}
	.st12{fill:#FBB03B;stroke:#FFFFFF;stroke-width:1.022;stroke-miterlimit:10;}
	.st13{fill:#FFFFFF;}
	.st14{fill:none;stroke:#FFFFFF;stroke-width:0.8672;stroke-miterlimit:10;}
	.st15{fill:url(#SVGID_1_);stroke:#FFFFFF;stroke-width:2;stroke-miterlimit:10;}
	.st16{fill:#9BA5B0;}
	.st17{fill:#C1CCD9;}
	.st18{fill:none;stroke:#4D4D4D;stroke-width:2.9066;stroke-miterlimit:10;}
	.st19{fill:url(#SVGID_2_);stroke:#FFFFFF;stroke-width:1.022;stroke-miterlimit:10;}
	.st20{fill:url(#SVGID_3_);}
	.st21{opacity:0.5;}
	.st22{fill:#FBB03B;}
	.st23{fill:none;stroke:#808080;stroke-miterlimit:10;}
	.st24{fill:#F7931E;}
	.st25{fill:#C6CCCC;stroke:#FFFFFF;stroke-width:2;stroke-miterlimit:10;}
	.st26{fill:url(#SVGID_4_);}
	.st27{fill:url(#SVGID_5_);}
	.st28{fill:url(#SVGID_6_);}
	.st29{fill:url(#SVGID_7_);}
	.st30{fill:url(#SVGID_8_);}
	.st31{fill:url(#SVGID_9_);}
</style>
<g>
	<path class="st5" d="M116.7,167.7c4.4-5.4,8.8-10.9,13.1-16.2c5-6.2,10.2-12.6,15.3-18.9c3.9-4.7,3.6-10.4-0.6-14.3
		c-2-1.8-4.3-2.8-6.7-2.8c-2.6,0-5.1,1.1-7.2,3.3c-1.9,2-3.6,4.1-5.3,6.4c-0.9,1.1-1.7,2.2-2.6,3.3c-3.6,4.3-7.1,8.7-10.9,13.2
		l-8.3,10.1l0-60.5c0-18.5,0-37.7,0-56.5c0-5.5-3.4-10.2-6.6-11.2C95.5,23.2,94.2,23,93,23C87.1,23,83,27.6,83,34.1l0,23.5
		c0,13,0,26.1,0,39.1c0,0.6-0.1,1.2-0.1,1.8c0,0.2-0.1,0.9-0.1,1.1l-0.2,2.2h-7l0-35.8c0-18.6,0-37.3,0-55.8c0-4.4-2.7-7.9-7.4-9.3
		c-0.8-0.3-1.7-0.4-2.6-0.4c-3.2,0-6.4,1.7-8.4,4.4c-1.9,2.6-1.7,5.5-1.6,8.8c0,0.9,0.1,1.9,0.1,2.8c0,12,0,24,0,36
		c0,13.2,0,26.3,0,39.5c0,2.1-0.3,4.2-0.7,6.1c-0.2,1.2-1.6,3-3.2,3l-0.4,0c-1-0.2-2.8-0.9-3.5-2.5c-0.4-1.1-0.4-2.1-0.3-3
		c0-0.2,0-0.5,0-0.7c0-5.5,0-11,0-16.5c0-17.3,0-35.3-0.2-52.9c0-2.2-1.3-5.1-3-6.8c-3-3-7-3.5-11-1.5c-3.9,2-5.7,5.2-5.7,9.6
		c0.1,20.6,0.1,43.1,0,68.7c0,1.4-1.2,5.9-3.8,5.9l-0.1,0c-1.4-0.1-2.2-0.7-2.7-1.2c-1-1.2-0.9-2.7-0.8-3.8c0-0.2,0-0.5,0-0.7
		c0-8.2,0-16.3,0-24.5c0-6,0-12,0-18c0-5.2-2.5-9.1-6.8-10.7c-1.1-0.4-2.3-0.6-3.5-0.6c-2.7,0-5.2,1-7,2.9c-2.1,2.1-3.1,5-3.1,8.4
		v26.4c0,30.4,0,61.8,0,92.6c0,2.2,0.4,4.8,1.1,7.7c3.5,13.2,12.3,22.2,28,28.3c6.9,2.7,14.1,4,21.9,4c3.2,0,6.6-0.2,10.1-0.7
		c13.3-1.8,23.4-6.6,31-14.7"/>
	<path d="M110.9,174.8c1.9-2.4,3.8-4.7,5.8-7.1c4.4-5.4,8.8-10.9,13.1-16.2c5-6.2,10.2-12.6,15.3-18.9c3.9-4.7,3.6-10.4-0.6-14.3
		c-2-1.8-4.3-2.8-6.7-2.8c-2.6,0-5.1,1.1-7.2,3.3c-1.9,2-3.6,4.1-5.3,6.4c-0.9,1.1-1.7,2.2-2.6,3.3c-3.6,4.3-7.1,8.7-10.9,13.2
		l-8.3,10.1"/>
	<path class="st5" d="M334.5,95.7c0-8.2,0-16.3,0-24.5c0-6,0-12,0-18c0-5.2,2.5-9.1,6.8-10.7c1.1-0.4,2.3-0.6,3.5-0.6
		c2.7,0,5.2,1,7.1,2.9c2.1,2.1,3.2,5,3.2,8.4v26.4c0,30.4,0,61.8-0.1,92.6c0,2.2-0.4,4.8-1.2,7.7c-3.5,13.2-12.4,22.2-28,28.3
		c-6.9,2.7-14.1,4-21.9,4c-3.2,0-6.6-0.2-10.1-0.7c-13.3-1.8-23.4-6.6-31-14.7c-6.6-7-12.8-14.6-18.7-22c-1.9-2.4-3.8-4.7-5.8-7.1
		c-4.4-5.4-8.8-10.9-13.1-16.2c-5-6.2-10.2-12.6-15.3-18.9c-3.9-4.7-3.6-10.4,0.6-14.3c2-1.8,4.3-2.8,6.7-2.8c2.6,0,5.1,1.1,7.2,3.3
		c1.9,2,3.6,4.1,5.3,6.4c0.9,1.1,1.7,2.2,2.6,3.3c3.6,4.3,7.1,8.7,10.9,13.2l8.3,10.1l0-60.5c0-18.5,0-37.7,0-56.5
		c0-5.5,3.4-10.2,6.6-11.2c1.3-0.4,2.5-0.6,3.8-0.6c5.9,0,10.1,4.6,10.1,11.1l0,23.5c0,13,0,26.1,0,39.1c0,0.6,0.1,1.2,0.1,1.8
		c0,0.2,0.1,0.9,0.1,1.1l0.2,2.2h7l0-35.8c0-18.6,0-37.3,0-55.8c0-4.4,2.7-7.9,7.4-9.3c0.8-0.3,1.7-0.4,2.6-0.4
		c3.2,0,6.4,1.7,8.4,4.4c1.9,2.6,1.7,5.5,1.6,8.8c0,0.9-0.1,1.9-0.1,2.8c0,12,0,24,0,36c0,13.2,0,26.3,0,39.5c0,2.1,0.3,4.2,0.7,6.1
		c0.2,1.2,1.6,3,3.2,3l0.4,0c1-0.2,2.8-0.9,3.5-2.5c0.4-1.1,0.4-2.1,0.3-3c0-0.2,0-0.5,0-0.7c0-5.5,0-11,0-16.5
		c0-17.3,0-35.3,0.2-52.9c0-2.2,1.3-5.1,3-6.8c3-3,7-3.5,11-1.5c3.9,2,5.7,5.2,5.7,9.6c-0.1,20.6-0.1,43.1,0,68.7
		c0,1.4,1.2,5.9,3.8,5.9l0.1,0c1.4-0.1,2.2-0.7,2.7-1.2c1-1.2,0.9-2.7,0.8-3.8C334.5,96.2,334.5,95.9,334.5,95.7z"/>
	<path d="M244.1,174.8c-1.9-2.4-3.8-4.7-5.8-7.1c-4.4-5.4-8.8-10.9-13.1-16.2c-5-6.2-10.2-12.6-15.3-18.9
		c-3.9-4.7-3.6-10.4,0.6-14.3c2-1.8,4.3-2.8,6.7-2.8c2.6,0,5.1,1.1,7.2,3.3c1.9,2,3.6,4.1,5.3,6.4c0.9,1.1,1.7,2.2,2.6,3.3
		c3.6,4.3,7.1,8.7,10.9,13.2l8.3,10.1"/>
</g>
</svg>
