<svg xmlns="http://www.w3.org/2000/svg" width="282.5" height="282.5"><style type="text/css">.st0{fill:#333333;}
	.st1{fill:#4D4D4D;}
	.st2{fill:#F2F2F2;}
	.st3{fill:none;stroke:#4D4D4D;stroke-width:6.2497;stroke-linecap:round;stroke-linejoin:round;stroke-miterlimit:10;}
	.st4{fill:none;stroke:#4D4D4D;stroke-width:7;stroke-linecap:round;stroke-linejoin:round;stroke-miterlimit:10;}
	.st5{fill:#CCCCCC;}
	.st6{fill:#8CC63F;}
	.st7{fill:#EFD51F;stroke:#4D4D4D;stroke-width:3.7788;stroke-miterlimit:10;}
	.st8{fill:none;stroke:#4D4D4D;stroke-width:3.7788;stroke-miterlimit:10;}
	.st9{fill:none;stroke:#F2F2F2;stroke-width:12.4747;stroke-miterlimit:10;}
	.st10{fill:#8CC63F;stroke:#FFFFFF;stroke-width:1.022;stroke-miterlimit:10;}
	.st11{fill:#E6E6E6;}
	.st12{fill:#FBB03B;stroke:#FFFFFF;stroke-width:1.022;stroke-miterlimit:10;}
	.st13{fill:#FFFFFF;}
	.st14{fill:none;stroke:#FFFFFF;stroke-width:0.8672;stroke-miterlimit:10;}
	.st15{fill:url(#SVGID_1_);stroke:#FFFFFF;stroke-width:2;stroke-miterlimit:10;}
	.st16{fill:#9BA5B0;}
	.st17{fill:#C1CCD9;}
	.st18{fill:none;stroke:#4D4D4D;stroke-width:2.9066;stroke-miterlimit:10;}
	.st19{fill:url(#SVGID_2_);stroke:#FFFFFF;stroke-width:1.022;stroke-miterlimit:10;}
	.st20{fill:url(#SVGID_3_);}
	.st21{opacity:0.5;}
	.st22{fill:#FBB03B;}
	.st23{fill:none;stroke:#808080;stroke-miterlimit:10;}
	.st24{fill:#eaa9e1;}
	.st25{fill:#C6CCCC;stroke:#FFFFFF;stroke-width:2;stroke-miterlimit:10;}
	.st26{fill:url(#SVGID_4_);}
	.st27{fill:url(#SVGID_5_);}
	.st28{fill:url(#SVGID_6_);}
	.st29{fill:url(#SVGID_7_);}
	.st30{fill:url(#SVGID_8_);}
	.st31{fill:url(#SVGID_9_);}</style><title>background</title><rect fill="none" height="164.6" width="164.6" y="-1" x="-1"/><title>Layer 1</title><ellipse stroke="null" ry="162.224068" rx="169.894502" cy="140.649377" cx="143.404092" stroke-opacity="null" stroke-width="null" fill="#ffffff"/><path d="m234.5 282.5l-186.5 0c-26.5 0-48-21.5-48-48l0-186.5c0-26.5 21.5-48 48-48l186.5 0c26.5 0 48 21.5 48 48l0 186.5c0 26.5-21.5 48-48 48zm-186.5-266.5c-17.6 0-32 14.4-32 32l0 186.5c0 17.600006 14.4 32 32 32l186.5 0c17.600006 0 32-14.399994 32-32l0-186.5c0-17.6-14.399994-32-32-32l-186.5 0z" class="st24"/></svg>