<?xml version="1.0" encoding="utf-8"?>
<!-- Generator: Adobe Illustrator 18.0.0, SVG Export Plug-In . SVG Version: 6.00 Build 0)  -->
<!DOCTYPE svg PUBLIC "-//W3C//DTD SVG 1.1//EN" "http://www.w3.org/Graphics/SVG/1.1/DTD/svg11.dtd">
<svg version="1.1" id="Layer_1" xmlns="http://www.w3.org/2000/svg" xmlns:xlink="http://www.w3.org/1999/xlink" x="0px" y="0px"
	 viewBox="0 0 244 61.7" style="enable-background:new 0 0 244 61.7;" xml:space="preserve">
<style type="text/css">
	.st0{fill:#333333;}
	.st1{fill:#4D4D4D;}
	.st2{fill:#F2F2F2;}
	.st3{fill:none;stroke:#4D4D4D;stroke-width:6.2497;stroke-linecap:round;stroke-linejoin:round;stroke-miterlimit:10;}
	.st4{fill:none;stroke:#4D4D4D;stroke-width:7;stroke-linecap:round;stroke-linejoin:round;stroke-miterlimit:10;}
	.st5{fill:#CCCCCC;}
	.st6{fill:#8CC63F;}
	.st7{fill:#EFD51F;stroke:#4D4D4D;stroke-width:3.7788;stroke-miterlimit:10;}
	.st8{fill:none;stroke:#4D4D4D;stroke-width:3.7788;stroke-miterlimit:10;}
	.st9{fill:none;stroke:#F2F2F2;stroke-width:12.4747;stroke-miterlimit:10;}
	.st10{fill:#8CC63F;stroke:#FFFFFF;stroke-width:1.022;stroke-miterlimit:10;}
	.st11{fill:#E6E6E6;}
	.st12{fill:#FBB03B;stroke:#FFFFFF;stroke-width:1.022;stroke-miterlimit:10;}
	.st13{fill:#FFFFFF;}
	.st14{fill:none;stroke:#FFFFFF;stroke-width:0.8672;stroke-miterlimit:10;}
	.st15{fill:url(#SVGID_1_);stroke:#FFFFFF;stroke-width:2;stroke-miterlimit:10;}
	.st16{fill:#9BA5B0;}
	.st17{fill:#C1CCD9;}
	.st18{fill:none;stroke:#4D4D4D;stroke-width:2.9066;stroke-miterlimit:10;}
	.st19{fill:url(#SVGID_2_);stroke:#FFFFFF;stroke-width:1.022;stroke-miterlimit:10;}
	.st20{fill:url(#SVGID_3_);}
	.st21{opacity:0.5;}
	.st22{fill:#FBB03B;}
	.st23{fill:none;stroke:#808080;stroke-miterlimit:10;}
	.st24{fill:#F7931E;}
	.st25{fill:#C6CCCC;stroke:#FFFFFF;stroke-width:2;stroke-miterlimit:10;}
	.st26{fill:url(#SVGID_4_);}
	.st27{fill:url(#SVGID_5_);}
	.st28{fill:url(#SVGID_6_);}
	.st29{fill:url(#SVGID_7_);}
	.st30{fill:url(#SVGID_8_);}
	.st31{fill:url(#SVGID_9_);}
</style>
<linearGradient id="SVGID_1_" gradientUnits="userSpaceOnUse" x1="121.9859" y1="61.1751" x2="121.9859" y2="0.511">
	<stop  offset="0" style="stop-color:#009245"/>
	<stop  offset="1" style="stop-color:#8CC63F"/>
</linearGradient>
<path style="fill:url(#SVGID_1_);stroke:#FFFFFF;stroke-width:1.022;stroke-miterlimit:10;" d="M236.5,61.2H7.5c-3.8,0-7-3.1-7-7
	V7.5c0-3.8,3.2-7,7-7h228.9c3.8,0,7,3.2,7,7v46.7C243.5,58,240.3,61.2,236.5,61.2z"/>
<g>
	<path class="st13" d="M69.2,43.2v-3.9l8.4-11.6c0.4-0.5,0.8-1.1,1.2-1.7c-0.6,0-1.8,0.1-3.4,0.1h-6v-4.5h15.6v4.1l-8.7,11.8
		c-0.3,0.4-0.6,0.8-0.9,1.2c0.4-0.1,1.6-0.1,4.2-0.1h5.6v4.6H69.2z"/>
	<path class="st13" d="M103,43.2l-1-3.8h-6.5l-1,3.8h-4.9l6.2-21.6h6.4l6.2,21.6H103z M99.3,29.2c-0.2-0.6-0.4-1.4-0.5-2.2h0
		c-0.1,0.8-0.3,1.5-0.5,2.1l-1.7,6.2h4.4L99.3,29.2z"/>
	<path class="st13" d="M123,43.5c-8,0-10-5.4-10-10.3c0-7,3.7-11.7,10.8-11.7c1.5,0,3,0.2,4.3,0.5l-0.5,4.5
		c-1.2-0.4-2.5-0.6-3.8-0.6c-3.5,0-5.3,2.5-5.3,6.4c0,4.3,1.6,6.6,5.5,6.6c1.1,0,2.7-0.3,3.6-0.8l0.6,4.4
		C126.7,43.1,124.9,43.5,123,43.5z"/>
	<path class="st13" d="M144.9,43.2l-4.4-9.3c-0.8-1.7-1.5-3.3-2-4.7c0.1,1.6,0.2,3.7,0.2,5.8v8.2h-4.5V21.6h6l4.1,8.5
		c0.9,1.8,1.7,3.7,2.4,5.3c-0.2-1.9-0.2-4.7-0.2-6.7v-7.1h4.5v21.6H144.9z"/>
	<path class="st13" d="M156.9,25.6v-4h14.7v4h-4.9V39h4.9v4.1h-14.7V39h4.9V25.6H156.9z"/>
</g>
<g>
	<path class="st13" d="M122,20.8l-5.5-2.7l1.4-2.9l4.2,2l4-1.9l1.3,2.8L122,20.8z"/>
</g>
</svg>
