<?xml version="1.0"?>
<svg width="400" height="282.5" xmlns="http://www.w3.org/2000/svg">
 <style type="text/css">.st0{fill:#333333;}
	.st1{fill:#4D4D4D;}
	.st2{fill:#F2F2F2;}
	.st3{fill:none;stroke:#4D4D4D;stroke-width:6.2497;stroke-linecap:round;stroke-linejoin:round;stroke-miterlimit:10;}
	.st4{fill:none;stroke:#4D4D4D;stroke-width:7;stroke-linecap:round;stroke-linejoin:round;stroke-miterlimit:10;}
	.st5{fill:#CCCCCC;}
	.st6{fill:#8CC63F;}
	.st7{fill:#EFD51F;stroke:#4D4D4D;stroke-width:3.7788;stroke-miterlimit:10;}
	.st8{fill:none;stroke:#4D4D4D;stroke-width:3.7788;stroke-miterlimit:10;}
	.st9{fill:none;stroke:#F2F2F2;stroke-width:12.4747;stroke-miterlimit:10;}
	.st10{fill:#8CC63F;stroke:#FFFFFF;stroke-width:1.022;stroke-miterlimit:10;}
	.st11{fill:#E6E6E6;}
	.st12{fill:#FBB03B;stroke:#FFFFFF;stroke-width:1.022;stroke-miterlimit:10;}
	.st13{fill:#FFFFFF;}
	.st14{fill:none;stroke:#FFFFFF;stroke-width:0.8672;stroke-miterlimit:10;}
	.st15{fill:url(#SVGID_1_);stroke:#FFFFFF;stroke-width:2;stroke-miterlimit:10;}
	.st16{fill:#9BA5B0;}
	.st17{fill:#C1CCD9;}
	.st18{fill:none;stroke:#4D4D4D;stroke-width:2.9066;stroke-miterlimit:10;}
	.st19{fill:url(#SVGID_2_);stroke:#FFFFFF;stroke-width:1.022;stroke-miterlimit:10;}
	.st20{fill:url(#SVGID_3_);}
	.st21{opacity:0.5;}
	.st22{fill:#FBB03B;}
	.st23{fill:none;stroke:#808080;stroke-miterlimit:10;}
	.st24{fill:#F7931E;}
	.st25{fill:#C6CCCC;stroke:#FFFFFF;stroke-width:2;stroke-miterlimit:10;}
	.st26{fill:url(#SVGID_4_);}
	.st27{fill:url(#SVGID_5_);}
	.st28{fill:url(#SVGID_6_);}
	.st29{fill:url(#SVGID_7_);}
	.st30{fill:url(#SVGID_8_);}
	.st31{fill:url(#SVGID_9_);}</style>

 <g stroke="null">
  <title>background</title>
  <rect x="-1" y="-1" width="402" height="284.5" id="canvas_background" fill="none" stroke="null"/>
 </g>
 <g stroke="null">
  <title>Layer 1</title>
  <path stroke="null" class="st24" d="m332.45047,282.5l-264.400917,0c-37.569021,0 -68.049553,-21.5 -68.049553,-48l0,-186.5c0,-26.5 30.480532,-48 68.049553,-48l264.400917,0c37.569,0 68.04953,21.5 68.04953,48l0,186.5c0,26.5 -30.48053,48 -68.04953,48zm-264.400917,-266.5c-24.9515,0 -45.366367,14.4 -45.366367,32l0,186.5c0,17.600006 20.414867,32 45.366367,32l264.400917,0c24.951508,0 45.366333,-14.399994 45.366333,-32l0,-186.5c0,-17.6 -20.414825,-32 -45.366333,-32l-264.400917,0z" id="svg_14"/>
  <rect fill="#fff" stroke-width="1.5" x="248.742091" y="136.239992" width="3.499743" height="0" id="svg_18" stroke="#000"/>
 </g>
</svg>